<?xml version="1.0" encoding="UTF-8" standalone="no"?>
<!DOCTYPE svg PUBLIC "-//W3C//DTD SVG 1.1//EN" "http://www.w3.org/Graphics/SVG/1.1/DTD/svg11.dtd">
<svg width="100%" height="100%" viewBox="0 0 4267 4267" version="1.1" xmlns="http://www.w3.org/2000/svg" xmlns:xlink="http://www.w3.org/1999/xlink" xml:space="preserve" xmlns:serif="http://www.serif.com/" style="fill-rule:evenodd;clip-rule:evenodd;stroke-linejoin:round;stroke-miterlimit:2;">
    <g>
        <g id="TITLE" transform="matrix(0.839881,0,0,0.720061,466.540378,632.821706)">
            <text x="459px" y="2389.96px" style="font-family:'Helvetica-Bold', 'Helvetica';font-weight:700;font-size:840.365px;">DY<tspan x="1549.258px 2156.143px " y="2389.96px 2389.96px ">AN</tspan>A</text>
        </g>
        <g id="YELLOW" transform="matrix(-0.531675,0,0,-0.531675,2947.970516,3378.184963)">
            <g id="peak" transform="matrix(1.501447,-0,-0,0.683651,-929.858657,544.17213)">
                <path d="M1861,1791.667L1100.482,1791.667C1100.482,1791.667 1151.698,1755.907 1199.139,1684.609C1271.369,1576.054 1278.392,1530.782 1305.482,1439C1353.797,1275.309 1397.233,1120.333 1480.741,1120C1564.249,1120.333 1607.685,1275.309 1656,1439C1683.09,1530.782 1690.113,1576.054 1762.344,1684.609C1809.784,1755.907 1861,1791.667 1861,1791.667Z" style="fill:rgb(254,221,69);fill-opacity:0.75;"/>
            </g>
            <g id="peak1" serif:id="peak" transform="matrix(1.860313,0,0,1.860313,-2680.390315,-1567.850596)">
                <path d="M1861,1791.667L1100.482,1791.667C1100.482,1791.667 1151.698,1755.907 1199.139,1684.609C1271.369,1576.054 1278.392,1530.782 1305.482,1439C1353.797,1275.309 1397.233,1120.333 1480.741,1120C1564.249,1120.333 1607.685,1275.309 1656,1439C1683.09,1530.782 1690.113,1576.054 1762.344,1684.609C1809.784,1755.907 1861,1791.667 1861,1791.667Z" style="fill:rgb(255,211,37);"/>
            </g>
            <g id="peak2" serif:id="peak" transform="matrix(1.297459,0,0,1.297459,-1198.744236,-559.402969)">
                <path d="M1861,1791.667L1100.482,1791.667C1100.482,1791.667 1151.698,1755.907 1199.139,1684.609C1271.369,1576.054 1278.392,1530.782 1305.482,1439C1353.797,1275.309 1397.233,1120.333 1480.741,1120C1564.249,1120.333 1607.685,1275.309 1656,1439C1683.09,1530.782 1690.113,1576.054 1762.344,1684.609C1809.784,1755.907 1861,1791.667 1861,1791.667Z" style="fill:rgb(254,221,65);fill-opacity:0.84;"/>
            </g>
            <g id="peak3" serif:id="peak" transform="matrix(2.184027,-0,-0,0.683651,-1110.087464,544.17213)">
                <path d="M1861,1791.667L1100.482,1791.667C1100.482,1791.667 1151.698,1755.907 1199.139,1684.609C1271.369,1576.054 1278.392,1530.782 1305.482,1439C1353.797,1275.309 1397.233,1120.333 1480.741,1120C1564.249,1120.333 1607.685,1275.309 1656,1439C1683.09,1530.782 1690.113,1576.054 1762.344,1684.609C1809.784,1755.907 1861,1791.667 1861,1791.667Z" style="fill:rgb(255,211,37);fill-opacity:0.76;"/>
            </g>
            <g id="peak4" serif:id="peak" transform="matrix(1.192307,-0,-0,0.683651,-2713.13436,544.17213)">
                <path d="M1861,1791.667L1100.482,1791.667C1100.482,1791.667 1151.698,1755.907 1199.139,1684.609C1271.369,1576.054 1278.392,1530.782 1305.482,1439C1353.797,1275.309 1397.233,1120.333 1480.741,1120C1564.249,1120.333 1607.685,1275.309 1656,1439C1683.09,1530.782 1690.113,1576.054 1762.344,1684.609C1809.784,1755.907 1861,1791.667 1861,1791.667Z" style="fill:rgb(254,220,61);fill-opacity:0.71;"/>
            </g>
            <g id="peak5" serif:id="peak" transform="matrix(1.192307,-0,-0,1.156897,-2259.749017,-303.726621)">
                <path d="M1861,1791.667L1100.482,1791.667C1100.482,1791.667 1151.698,1755.907 1199.139,1684.609C1271.369,1576.054 1278.392,1530.782 1305.482,1439C1353.797,1275.309 1397.233,1120.333 1480.741,1120C1564.249,1120.333 1607.685,1275.309 1656,1439C1683.09,1530.782 1690.113,1576.054 1762.344,1684.609C1809.784,1755.907 1861,1791.667 1861,1791.667Z" style="fill:rgb(254,215,61);fill-opacity:0.73;"/>
            </g>
        </g>
        <g id="GREEN" transform="matrix(1,0,0,1,-141.489636,45.666667)">
            <g id="peak6" serif:id="peak" transform="matrix(0.618681,0,0,0.618681,909.227178,680.196827)">
                <path d="M1861,1791.667L1100.482,1791.667C1100.482,1791.667 1151.698,1755.907 1199.139,1684.609C1271.369,1576.054 1278.392,1530.782 1305.482,1439C1353.797,1275.309 1397.233,1120.333 1480.741,1120C1564.249,1120.333 1607.685,1275.309 1656,1439C1683.09,1530.782 1690.113,1576.054 1762.344,1684.609C1809.784,1755.907 1861,1791.667 1861,1791.667Z" style="fill:rgb(58,142,75);fill-opacity:0.87;"/>
            </g>
            <g id="peak7" serif:id="peak" transform="matrix(0.51086,0,0,0.328406,153.105911,1200.271905)">
                <path d="M1861,1791.667L1100.482,1791.667C1100.482,1791.667 1151.698,1755.907 1199.139,1684.609C1271.369,1576.054 1278.392,1530.782 1305.482,1439C1353.797,1275.309 1397.233,1120.333 1480.741,1120C1564.249,1120.333 1607.685,1275.309 1656,1439C1683.09,1530.782 1690.113,1576.054 1762.344,1684.609C1809.784,1755.907 1861,1791.667 1861,1791.667Z" style="fill:rgb(78,154,76);fill-opacity:0.93;"/>
            </g>
            <g id="peak8" serif:id="peak" transform="matrix(0.568715,0,0,0.365627,1199.472717,1133.58456)">
                <path d="M1861,1791.667L1100.482,1791.667C1100.482,1791.667 1151.698,1755.907 1199.139,1684.609C1271.369,1576.054 1278.392,1530.782 1305.482,1439C1353.797,1275.309 1397.233,1120.333 1480.741,1120C1564.249,1120.333 1607.685,1275.309 1656,1439C1683.09,1530.782 1690.113,1576.054 1762.344,1684.609C1809.784,1755.907 1861,1791.667 1861,1791.667Z" style="fill:rgb(41,131,76);fill-opacity:0.91;"/>
            </g>
            <g id="peak9" serif:id="peak" transform="matrix(0.894809,0,0,0.365627,1011.279146,1133.58456)">
                <path d="M1861,1791.667L1100.482,1791.667C1100.482,1791.667 1151.698,1755.907 1199.139,1684.609C1271.369,1576.054 1278.392,1530.782 1305.482,1439C1353.797,1275.309 1397.233,1120.333 1480.741,1120C1564.249,1120.333 1607.685,1275.309 1656,1439C1683.09,1530.782 1690.113,1576.054 1762.344,1684.609C1809.784,1755.907 1861,1791.667 1861,1791.667Z" style="fill:rgb(41,131,76);fill-opacity:0.83;"/>
            </g>
            <g id="peak10" serif:id="peak" transform="matrix(0.656813,0,0,0.548128,231.522572,806.604191)">
                <path d="M1861,1791.667L1100.482,1791.667C1100.482,1791.667 1151.698,1755.907 1199.139,1684.609C1271.369,1576.054 1278.392,1530.782 1305.482,1439C1353.797,1275.309 1397.233,1120.333 1480.741,1120C1564.249,1120.333 1607.685,1275.309 1656,1439C1683.09,1530.782 1690.113,1576.054 1762.344,1684.609C1809.784,1755.907 1861,1791.667 1861,1791.667Z" style="fill:rgb(90,164,73);fill-opacity:0.88;"/>
            </g>
            <g id="peak11" serif:id="peak" transform="matrix(1,0,0,1,3.333333,-3)">
                <path d="M1861,1791.667L1100.482,1791.667C1100.482,1791.667 1151.698,1755.907 1199.139,1684.609C1271.369,1576.054 1278.392,1530.782 1305.482,1439C1353.797,1275.309 1397.233,1120.333 1480.741,1120C1564.249,1120.333 1607.685,1275.309 1656,1439C1683.09,1530.782 1690.113,1576.054 1762.344,1684.609C1809.784,1755.907 1861,1791.667 1861,1791.667Z" style="fill:rgb(41,131,76);fill-opacity:0.89;"/>
            </g>
        </g>
    </g>
</svg>
